<svg id="Blue" xmlns="http://www.w3.org/2000/svg" viewBox="0 0 21.6 21.6"><defs><style>.cls-1{fill:#000;}</style></defs><title>icon-facebook</title><path class="cls-1" d="M266.61,235.2H247.39a1.19,1.19,0,0,0-1.19,1.19v19.22a1.19,1.19,0,0,0,1.19,1.19h10.35v-8.36h-2.81v-3.26h2.81v-2.4a3.93,3.93,0,0,1,4.19-4.31,23.1,23.1,0,0,1,2.52.13v2.92h-1.73c-1.35,0-1.62.64-1.62,1.59v2.08h3.23l-.42,3.26H261.1v8.36h5.5a1.19,1.19,0,0,0,1.19-1.19V236.39A1.19,1.19,0,0,0,266.61,235.2Z" transform="translate(-246.2 -235.2)"/></svg>
