<svg id="Logo" xmlns="http://www.w3.org/2000/svg" viewBox="0 0 24 24"><title>icon-instagram</title><path d="M257,246.16c3.2,0,3.58,0,4.85.07a6.64,6.64,0,0,1,2.23.41,4,4,0,0,1,2.28,2.28,6.64,6.64,0,0,1,.41,2.23c.06,1.27.07,1.64.07,4.85s0,3.58-.07,4.85a6.64,6.64,0,0,1-.41,2.23,4,4,0,0,1-2.28,2.28,6.64,6.64,0,0,1-2.23.41c-1.27.06-1.64.07-4.85.07s-3.58,0-4.85-.07a6.64,6.64,0,0,1-2.23-.41,4,4,0,0,1-2.28-2.28,6.64,6.64,0,0,1-.41-2.23c-.06-1.27-.07-1.64-.07-4.85s0-3.58.07-4.85a6.64,6.64,0,0,1,.41-2.23,4,4,0,0,1,2.28-2.28,6.64,6.64,0,0,1,2.23-.41c1.27-.06,1.64-.07,4.85-.07m0-2.16c-3.26,0-3.67,0-4.95.07a8.81,8.81,0,0,0-2.91.56,6.14,6.14,0,0,0-3.51,3.51,8.81,8.81,0,0,0-.56,2.91c-.06,1.28-.07,1.69-.07,4.95s0,3.67.07,4.95a8.81,8.81,0,0,0,.56,2.91,6.14,6.14,0,0,0,3.51,3.51,8.81,8.81,0,0,0,2.91.56c1.28.06,1.69.07,4.95.07s3.67,0,4.95-.07a8.81,8.81,0,0,0,2.91-.56,6.14,6.14,0,0,0,3.51-3.51,8.81,8.81,0,0,0,.56-2.91c.06-1.28.07-1.69.07-4.95s0-3.67-.07-4.95a8.81,8.81,0,0,0-.56-2.91,6.14,6.14,0,0,0-3.51-3.51,8.81,8.81,0,0,0-2.91-.56c-1.28-.06-1.69-.07-4.95-.07Z" transform="translate(-244.96 -244)"/><path d="M257,249.84a6.16,6.16,0,1,0,6.16,6.16A6.16,6.16,0,0,0,257,249.84ZM257,260a4,4,0,1,1,4-4A4,4,0,0,1,257,260Z" transform="translate(-244.96 -244)"/><circle cx="18.41" cy="5.59" r="1.44"/></svg>