<svg id="Logo_FIXED" data-name="Logo — FIXED" xmlns="http://www.w3.org/2000/svg" viewBox="0 0 23.9 19.43"><defs><style>.cls-1{fill:#000;}</style></defs><title>icon-twitter</title><path class="cls-1" d="M210.45,221.81a13.86,13.86,0,0,0,14-14q0-.32,0-.63a10,10,0,0,0,2.45-2.54,9.79,9.79,0,0,1-2.82.77,4.92,4.92,0,0,0,2.16-2.71,9.83,9.83,0,0,1-3.11,1.19,4.91,4.91,0,0,0-8.36,4.47,13.92,13.92,0,0,1-10.11-5.12,4.91,4.91,0,0,0,1.52,6.55,4.87,4.87,0,0,1-2.22-.61s0,0,0,.06a4.91,4.91,0,0,0,3.93,4.81,4.9,4.9,0,0,1-2.21.08,4.91,4.91,0,0,0,4.58,3.41,9.84,9.84,0,0,1-6.09,2.1,10,10,0,0,1-1.17-.07,13.88,13.88,0,0,0,7.52,2.2" transform="translate(-202.93 -202.38)"/></svg>