<svg id="Layer_1" data-name="Layer 1" xmlns="http://www.w3.org/2000/svg" viewBox="0 0 29.1 20.5"><defs><style>.cls-1{fill:#000;}</style></defs><title>icon-youtube</title><path class="cls-1" d="M110.6,89A3.66,3.66,0,0,0,108,86.36c-2.27-.61-11.37-.61-11.37-.61s-9.1,0-11.37.61A3.66,3.66,0,0,0,82.72,89a41.16,41.16,0,0,0,0,14.1,3.66,3.66,0,0,0,2.57,2.59c2.27.61,11.37.61,11.37.61s9.1,0,11.37-.61A3.66,3.66,0,0,0,110.6,103a41.16,41.16,0,0,0,0-14.1ZM93.68,100.33V91.67l7.6,4.33Z" transform="translate(-82.11 -85.75)"/></svg>