<?xml version="1.0" encoding="UTF-8"?><!DOCTYPE svg PUBLIC "-//W3C//DTD SVG 1.1//EN" "http://www.w3.org/Graphics/SVG/1.1/DTD/svg11.dtd"><svg xmlns="http://www.w3.org/2000/svg"><defs><style>.cls-1{fill:#000}</style><style>.cls-1{fill:none;stroke:#000;stroke-width:.5px}</style><style>.cls-1{fill:#000}</style><style>.cls-1{fill:#000}</style></defs><symbol id="icon-back" viewBox="0 0 44.238 44.238"><path d="M22.119 44.237C9.922 44.237 0 34.315 0 22.119S9.922.001 22.119.001s22.119 9.922 22.119 22.118-9.924 22.118-22.119 22.118zm0-42.736C10.75 1.501 1.5 10.75 1.5 22.119c0 11.368 9.25 20.618 20.619 20.618s20.619-9.25 20.619-20.618c0-11.369-9.25-20.618-20.619-20.618z"/><path d="M24.667 29.884a.74.74 0 0 1-.53-.22l-7.328-7.334a.752.752 0 0 1 0-1.061l7.328-7.333a.75.75 0 1 1 1.061 1.061L18.4 21.8l6.798 6.805a.752.752 0 0 1 0 1.061.75.75 0 0 1-.531.218z"/></symbol><symbol id="icon-facebook" viewBox="0 0 21.6 21.6"><title>icon-facebook</title><path class="cls-1" d="M266.61 235.2h-19.22a1.19 1.19 0 0 0-1.19 1.19v19.22a1.19 1.19 0 0 0 1.19 1.19h10.35v-8.36h-2.81v-3.26h2.81v-2.4a3.93 3.93 0 0 1 4.19-4.31 23.1 23.1 0 0 1 2.52.13v2.92h-1.73c-1.35 0-1.62.64-1.62 1.59v2.08h3.23l-.42 3.26h-2.81v8.36h5.5a1.19 1.19 0 0 0 1.19-1.19v-19.23a1.19 1.19 0 0 0-1.18-1.19z" transform="translate(-246.2 -235.2)"/></symbol><symbol id="icon-instagram" viewBox="0 0 24 24"><title>icon-instagram</title><path d="M12.04 2.16c3.2 0 3.58 0 4.85.07a6.64 6.64 0 0 1 2.23.41 4 4 0 0 1 2.28 2.28 6.64 6.64 0 0 1 .41 2.23c.06 1.27.07 1.64.07 4.85s0 3.58-.07 4.85a6.64 6.64 0 0 1-.41 2.23 4 4 0 0 1-2.28 2.28 6.64 6.64 0 0 1-2.23.41c-1.27.06-1.64.07-4.85.07s-3.58 0-4.85-.07a6.64 6.64 0 0 1-2.23-.41 4 4 0 0 1-2.28-2.28 6.64 6.64 0 0 1-.41-2.23c-.06-1.27-.07-1.64-.07-4.85s0-3.58.07-4.85a6.64 6.64 0 0 1 .41-2.23 4 4 0 0 1 2.28-2.28 6.64 6.64 0 0 1 2.23-.41c1.27-.06 1.64-.07 4.85-.07m0-2.16C8.78 0 8.37 0 7.09.07a8.81 8.81 0 0 0-2.91.56A6.14 6.14 0 0 0 .67 4.14a8.81 8.81 0 0 0-.56 2.91C.05 8.33.04 8.74.04 12s0 3.67.07 4.95a8.81 8.81 0 0 0 .56 2.91 6.14 6.14 0 0 0 3.51 3.51 8.81 8.81 0 0 0 2.91.56c1.28.06 1.69.07 4.95.07s3.67 0 4.95-.07a8.81 8.81 0 0 0 2.91-.56 6.14 6.14 0 0 0 3.51-3.51 8.81 8.81 0 0 0 .56-2.91c.06-1.28.07-1.69.07-4.95s0-3.67-.07-4.95a8.81 8.81 0 0 0-.56-2.91A6.14 6.14 0 0 0 19.9.63a8.81 8.81 0 0 0-2.91-.56C15.71.01 15.3 0 12.04 0z"/><path d="M12.04 5.84A6.16 6.16 0 1 0 18.2 12a6.16 6.16 0 0 0-6.16-6.16zm0 10.16a4 4 0 1 1 4-4 4 4 0 0 1-4 4z"/><circle cx="18.41" cy="5.59" r="1.44"/></symbol><symbol id="icon-logo-stroke" viewBox="0 0 49.53 8.46"><title>logo-stroke</title><g fill="none" fill-rule="evenodd" stroke="currentColor" class="lines"><path class="cls-1" d="M235.35 209.5h-2l-1.58-5.55q.11 1.38.11 2.21v3.35H230v-7.71h2.78l1.61 5.47 1.58-5.47h2.78v7.71h-1.92v-3.38-.59q0-.22.07-1.58zM241.88 201.79l1.32 2.86 1.33-2.86h2.26l-2.54 4.7v3h-2.1v-2.95l-2.54-4.76zM252.6 203.86a4.29 4.29 0 0 0-1.77-.47 1.33 1.33 0 0 0-1.16.61 3 3 0 0 0-.42 1.68q0 2.22 1.69 2.22a5.46 5.46 0 0 0 2-.48v1.76a5.32 5.32 0 0 1-2.19.43 3.45 3.45 0 0 1-2.68-1 4.19 4.19 0 0 1-.93-2.92 4.55 4.55 0 0 1 .44-2.1 3.27 3.27 0 0 1 1.31-1.41 3.81 3.81 0 0 1 2-.48 5.43 5.43 0 0 1 2.38.54zM257.66 201.67a3.66 3.66 0 0 1 2.79 1 5.08 5.08 0 0 1 0 5.92 4.34 4.34 0 0 1-5.58 0 5 5 0 0 1 0-5.9 3.67 3.67 0 0 1 2.79-1.02zm0 1.71q-1.56 0-1.56 2.26t1.55 2.24a1.34 1.34 0 0 0 1.18-.54 4 4 0 0 0 0-3.4 1.32 1.32 0 0 0-1.17-.57zM267.45 205.86a2 2 0 0 1 .39 1.29 2.16 2.16 0 0 1-.82 1.78 3.31 3.31 0 0 1-2.2.67 6.62 6.62 0 0 1-1.29-.11 5.13 5.13 0 0 1-1.08-.38v-1.86a5.85 5.85 0 0 0 1.24.48 4.72 4.72 0 0 0 1.18.17 1.19 1.19 0 0 0 .67-.16.48.48 0 0 0 .23-.42.45.45 0 0 0-.09-.28 1.21 1.21 0 0 0-.28-.24 11.21 11.21 0 0 0-1-.5 5.12 5.12 0 0 1-1.13-.66 2.15 2.15 0 0 1-.74-1.72 2 2 0 0 1 .77-1.66 3.42 3.42 0 0 1 2.13-.6 6 6 0 0 1 2.44.56l-.64 1.61a4.64 4.64 0 0 0-1.87-.49 1 1 0 0 0-.58.13.42.42 0 0 0-.19.36.52.52 0 0 0 .23.41 8.93 8.93 0 0 0 1.27.65 3.53 3.53 0 0 1 1.36.97zM272.51 201.67a3.66 3.66 0 0 1 2.79 1 5.08 5.08 0 0 1 0 5.92 4.34 4.34 0 0 1-5.58 0 5 5 0 0 1 0-5.9 3.67 3.67 0 0 1 2.79-1.02zm0 1.71q-1.56 0-1.56 2.26t1.55 2.24a1.34 1.34 0 0 0 1.18-.54 4 4 0 0 0 0-3.4 1.32 1.32 0 0 0-1.17-.57zM277.95 209.63a1.2 1.2 0 0 1-.83-.27.94.94 0 0 1-.3-.74 1 1 0 0 1 .29-.75 1.21 1.21 0 0 1 .83-.26 1.13 1.13 0 0 1 .8.26 1 1 0 0 1 .28.75 1 1 0 0 1-.29.74 1.13 1.13 0 0 1-.78.27z" transform="translate(-229.75 -201.42)"/></g></symbol><symbol id="icon-logo" viewBox="0 0 49.03 7.96"><title>logo</title><path d="M5.35 7.83h-2L1.77 2.28q.11 1.38.11 2.21v3.35H0V.13h2.78L4.39 5.6 5.97.13h2.78v7.71H6.83V4.46v-.59q0-.22.07-1.58zM11.88.12l1.32 2.86L14.53.12h2.26l-2.54 4.7v3h-2.1V4.87L9.61.11zM22.6 2.19a4.29 4.29 0 0 0-1.77-.47 1.33 1.33 0 0 0-1.16.61 3 3 0 0 0-.42 1.68q0 2.22 1.69 2.22a5.46 5.46 0 0 0 2-.48v1.76a5.32 5.32 0 0 1-2.19.43 3.45 3.45 0 0 1-2.68-1 4.19 4.19 0 0 1-.93-2.92 4.55 4.55 0 0 1 .44-2.1A3.27 3.27 0 0 1 18.89.51a3.81 3.81 0 0 1 2-.48 5.43 5.43 0 0 1 2.38.54zM27.66 0a3.66 3.66 0 0 1 2.79 1 5.08 5.08 0 0 1 0 5.92 4.34 4.34 0 0 1-5.58 0 5 5 0 0 1 0-5.9A3.67 3.67 0 0 1 27.66 0zm0 1.71q-1.56 0-1.56 2.26t1.55 2.24a1.34 1.34 0 0 0 1.18-.54 4 4 0 0 0 0-3.4 1.32 1.32 0 0 0-1.17-.57zM37.45 4.19a2 2 0 0 1 .39 1.29 2.16 2.16 0 0 1-.82 1.78 3.31 3.31 0 0 1-2.2.67 6.62 6.62 0 0 1-1.29-.11 5.13 5.13 0 0 1-1.08-.38V5.58a5.85 5.85 0 0 0 1.24.48 4.72 4.72 0 0 0 1.18.17 1.19 1.19 0 0 0 .67-.16.48.48 0 0 0 .23-.42.45.45 0 0 0-.09-.28 1.21 1.21 0 0 0-.28-.24 11.21 11.21 0 0 0-1-.5 5.12 5.12 0 0 1-1.13-.66 2.15 2.15 0 0 1-.74-1.72A2 2 0 0 1 33.3.59a3.42 3.42 0 0 1 2.13-.6 6 6 0 0 1 2.44.56l-.64 1.61a4.64 4.64 0 0 0-1.87-.49 1 1 0 0 0-.58.13.42.42 0 0 0-.19.36.52.52 0 0 0 .23.41 8.93 8.93 0 0 0 1.27.65 3.53 3.53 0 0 1 1.36.97zM42.51 0a3.66 3.66 0 0 1 2.79 1 5.08 5.08 0 0 1 0 5.92 4.34 4.34 0 0 1-5.58 0 5 5 0 0 1 0-5.9A3.67 3.67 0 0 1 42.51 0zm0 1.71q-1.56 0-1.56 2.26t1.55 2.24a1.34 1.34 0 0 0 1.18-.54 4 4 0 0 0 0-3.4 1.32 1.32 0 0 0-1.17-.57zM47.95 7.96a1.2 1.2 0 0 1-.83-.27.94.94 0 0 1-.3-.74 1 1 0 0 1 .29-.75 1.21 1.21 0 0 1 .83-.26 1.13 1.13 0 0 1 .8.26 1 1 0 0 1 .28.75 1 1 0 0 1-.29.74 1.13 1.13 0 0 1-.78.27z"/></symbol><symbol id="icon-mail" viewBox="0 0 205.996 205.996"><path d="M102.996 61.363c22.958 0 41.635 18.678 41.635 41.635a6 6 0 0 0 12 0c0-29.574-24.061-53.635-53.635-53.635S49.36 73.424 49.36 102.998s24.061 53.635 53.635 53.635c18.99 0 36.745-10.195 46.336-26.607a6 6 0 0 0-10.361-6.055c-7.448 12.745-21.233 20.662-35.976 20.662-22.958 0-41.635-18.678-41.635-41.635s18.679-41.635 41.637-41.635z"/><path d="M205.698 95.053c-3.76-50.059-44.326-90.782-94.359-94.727C81.095-2.059 51.51 8.817 30.163 30.165 8.815 51.513-2.061 81.1.324 111.341c3.931 49.847 44.483 90.399 94.329 94.329 2.747.217 5.484.323 8.214.323 27.329 0 53.553-10.753 72.962-30.161a6 6 0 0 0-8.485-8.486c-18.862 18.861-45.012 28.47-71.747 26.361-44.023-3.471-79.838-39.286-83.31-83.31-2.108-26.735 7.5-52.887 26.361-71.747 18.861-18.861 45.008-28.473 71.747-26.361 44.189 3.483 80.016 39.451 83.337 83.662a93.044 93.044 0 0 1-.397 18.086 19.122 19.122 0 0 1-10.208 14.713c-5.095 2.633-10.819 2.623-15.706-.026a5.996 5.996 0 0 0-8.134 2.415 5.998 5.998 0 0 0 2.415 8.134c8.435 4.573 18.251 4.623 26.933.139a31.108 31.108 0 0 0 16.613-23.935c.812-6.719.963-13.59.45-20.424z"/></symbol><symbol id="icon-menu" viewBox="0 0 384.97 384.97"><path d="M12.03 120.303h360.909c6.641 0 12.03-5.39 12.03-12.03 0-6.641-5.39-12.03-12.03-12.03H12.03c-6.641 0-12.03 5.39-12.03 12.03s5.39 12.03 12.03 12.03zM372.939 180.455H12.03c-6.641 0-12.03 5.39-12.03 12.03s5.39 12.03 12.03 12.03h360.909c6.641 0 12.03-5.39 12.03-12.03s-5.389-12.03-12.03-12.03zM372.939 264.667H132.333c-6.641 0-12.03 5.39-12.03 12.03 0 6.641 5.39 12.03 12.03 12.03h240.606c6.641 0 12.03-5.39 12.03-12.03.001-6.641-5.389-12.03-12.03-12.03z"/></symbol><symbol id="icon-message" viewBox="0 0 33 33"><path d="M7.282 32.706a.5.5 0 0 1-.5-.5v-7.124C2.405 22.806 0 18.821 0 13.828 0 6.112 7.093.294 16.5.294S33 6.112 33 13.828c0 7.715-7.093 13.533-16.5 13.533-.309 0-.612-.017-.916-.033l-.02-.001-8.007 5.296a.498.498 0 0 1-.275.083zM16.5 1.294C7.664 1.294 1 6.683 1 13.828c0 3.323 1.128 7.842 6.503 10.499a.5.5 0 0 1 .278.448v6.501l7.369-4.874a.456.456 0 0 1 .302-.082l.186.01c.286.016.571.031.861.031 8.836 0 15.5-5.388 15.5-12.533S25.336 1.294 16.5 1.294z"/></symbol><symbol id="icon-mobile" viewBox="0 0 32.666 32.666"><path d="M28.189 16.504h-1.666c0-5.437-4.422-9.858-9.856-9.858l-.001-1.664c6.355-.003 11.523 5.167 11.523 11.522zM16.666 7.856l-.001 1.664a6.987 6.987 0 0 1 6.981 6.983l1.666-.001c0-4.767-3.876-8.646-8.646-8.646zM16.333 0C7.326 0 0 7.326 0 16.334c0 9.006 7.326 16.332 16.333 16.332a1.007 1.007 0 1 0 0-2.016c-7.896 0-14.318-6.424-14.318-14.316 0-7.896 6.422-14.319 14.318-14.319S30.65 8.439 30.65 16.334c0 3.299-1.756 6.568-4.269 7.954a6.172 6.172 0 0 1-2.959.761 4.733 4.733 0 0 0 1.591-1.529c.08-.121.186-.228.238-.359.328-.789.357-1.684.555-2.518.243-1.064-4.658-3.143-5.084-1.814-.154.492-.39 2.048-.699 2.458-.275.366-.953.192-1.377-.168-1.117-.952-2.364-2.351-3.458-3.457l.002-.001-.092-.092c-.031-.029-.062-.062-.093-.092v.002c-1.106-1.096-2.506-2.34-3.457-3.459-.36-.424-.534-1.102-.168-1.377.41-.311 1.966-.543 2.458-.699 1.326-.424-.75-5.328-1.816-5.084-.832.195-1.727.227-2.516.553-.134.057-.238.16-.359.24-2.799 1.774-3.16 6.082-.428 9.292a75.688 75.688 0 0 0 3.245 3.576l-.006.004c.031.031.063.06.095.09.03.031.059.062.088.095l.006-.006c1.16 1.118 2.535 2.765 4.769 4.255 4.703 3.141 8.312 2.264 10.438 1.098 3.67-2.021 5.312-6.338 5.312-9.719C32.666 7.326 25.339 0 16.333 0z"/></symbol><symbol id="icon-twitter" viewBox="0 0 23.9 19.43"><title>icon-twitter</title><path class="cls-1" d="M210.45 221.81a13.86 13.86 0 0 0 14-14v-.63a10 10 0 0 0 2.45-2.54 9.79 9.79 0 0 1-2.82.77 4.92 4.92 0 0 0 2.16-2.71 9.83 9.83 0 0 1-3.11 1.19 4.91 4.91 0 0 0-8.36 4.47 13.92 13.92 0 0 1-10.11-5.12 4.91 4.91 0 0 0 1.52 6.55 4.87 4.87 0 0 1-2.22-.61v.06a4.91 4.91 0 0 0 3.93 4.81 4.9 4.9 0 0 1-2.21.08 4.91 4.91 0 0 0 4.58 3.41 9.84 9.84 0 0 1-6.09 2.1 10 10 0 0 1-1.17-.07 13.88 13.88 0 0 0 7.52 2.2" transform="translate(-202.93 -202.38)"/></symbol><symbol id="icon-user" viewBox="0 0 55 55"><path d="M55 27.5C55 12.337 42.663 0 27.5 0S0 12.337 0 27.5c0 8.009 3.444 15.228 8.926 20.258l-.026.023.892.752c.058.049.121.089.179.137.474.393.965.766 1.465 1.127.162.117.324.234.489.348.534.368 1.082.717 1.642 1.048.122.072.245.142.368.212a27.44 27.44 0 0 0 1.88.98l.142.064a27.252 27.252 0 0 0 6.651 2.105l.184.033c.724.125 1.456.225 2.197.292.09.008.18.013.271.021.738.061 1.484.1 2.24.1.749 0 1.488-.039 2.222-.098l.279-.021a27.808 27.808 0 0 0 2.178-.287l.187-.034a27.251 27.251 0 0 0 6.557-2.055c.076-.035.153-.068.229-.104a27.639 27.639 0 0 0 2.25-1.189 27.514 27.514 0 0 0 1.581-1c.185-.126.366-.259.549-.391.439-.316.87-.642 1.289-.983.093-.075.193-.14.284-.217l.915-.764-.027-.023C51.523 42.802 55 35.55 55 27.5zm-53 0C2 13.439 13.439 2 27.5 2S53 13.439 53 27.5c0 7.577-3.325 14.389-8.589 19.063a7.494 7.494 0 0 0-.893-.537l-8.467-4.233a2.217 2.217 0 0 1-1.232-1.993v-2.957c.196-.242.403-.516.617-.817a20.378 20.378 0 0 0 2.616-5.123 3.63 3.63 0 0 0 2.085-3.289v-3.545c0-.867-.318-1.708-.887-2.369v-4.667c.052-.519.236-3.448-1.883-5.864C34.524 9.065 31.541 8 27.5 8s-7.024 1.065-8.867 3.168c-2.119 2.416-1.935 5.345-1.883 5.864v4.667a3.644 3.644 0 0 0-.887 2.369v3.545c0 1.101.494 2.128 1.34 2.821.81 3.173 2.477 5.575 3.093 6.389v2.894a2.23 2.23 0 0 1-1.162 1.958l-7.907 4.313a7.227 7.227 0 0 0-.752.476C5.276 41.792 2 35.022 2 27.5zm40.459 20.632c-.35.254-.706.5-1.067.735-.166.108-.331.216-.5.321-.472.292-.952.57-1.442.83-.108.057-.217.111-.326.167a25.481 25.481 0 0 1-3.488 1.476l-.127.043c-.627.208-1.262.393-1.904.552l-.006.001a25.59 25.59 0 0 1-1.964.402l-.054.01c-.621.101-1.247.174-1.875.229-.111.01-.222.017-.334.025-.621.047-1.245.077-1.872.077a25.43 25.43 0 0 1-1.895-.078c-.109-.008-.218-.015-.326-.025a25.862 25.862 0 0 1-1.89-.233l-.084-.015a25.405 25.405 0 0 1-3.89-.971l-.118-.04a25.86 25.86 0 0 1-1.862-.713l-.013-.006a26.094 26.094 0 0 1-1.705-.816c-.073-.038-.147-.074-.219-.113a25.7 25.7 0 0 1-1.939-1.155 25.417 25.417 0 0 1-1.338-.933l-.133-.104.096-.054 7.907-4.313a4.229 4.229 0 0 0 2.205-3.714l-.001-3.602-.23-.278c-.022-.025-2.184-2.655-3.001-6.216l-.091-.396-.341-.221a1.657 1.657 0 0 1-.769-1.392v-3.545c0-.465.197-.898.557-1.223l.33-.298v-5.57l-.009-.131c-.003-.024-.298-2.429 1.396-4.36C21.583 10.837 24.061 10 27.5 10c3.426 0 5.896.83 7.346 2.466 1.692 1.911 1.415 4.361 1.413 4.381l-.009 5.701.33.298c.359.324.557.758.557 1.223v3.545a1.67 1.67 0 0 1-1.181 1.575l-.497.153-.16.495a18.5 18.5 0 0 1-2.496 5.032c-.262.37-.517.698-.736.949l-.248.283V39.8c0 1.612.896 3.062 2.338 3.782l8.467 4.233.16.083c-.107.081-.217.156-.325.234z"/></symbol><symbol id="icon-youtube" viewBox="0 0 29.1 20.5"><title>icon-youtube</title><path class="cls-1" d="M110.6 89a3.66 3.66 0 0 0-2.6-2.64c-2.27-.61-11.37-.61-11.37-.61s-9.1 0-11.37.61A3.66 3.66 0 0 0 82.72 89a41.16 41.16 0 0 0 0 14.1 3.66 3.66 0 0 0 2.57 2.59c2.27.61 11.37.61 11.37.61s9.1 0 11.37-.61a3.66 3.66 0 0 0 2.57-2.69 41.16 41.16 0 0 0 0-14.1zm-16.92 11.33v-8.66l7.6 4.33z" transform="translate(-82.11 -85.75)"/></symbol></svg>