<svg data-name="Layer 1" xmlns="http://www.w3.org/2000/svg" viewBox="0 0 49.53 8.46"><path d="M5.6 8.08h-2L2.02 2.53h0q.11 1.38.11 2.21v3.35H.25V.38h2.78l1.61 5.47h0L6.22.38H9v7.71H7.08V4.12q0-.22.07-1.58h0zM12.13.37l1.32 2.86L14.78.37h2.26l-2.54 4.7v3h-2.1V5.12L9.86.36zm10.72 2.07a4.29 4.29 0 0 0-1.77-.47 1.33 1.33 0 0 0-1.16.61 3 3 0 0 0-.42 1.68q0 2.22 1.69 2.22a5.46 5.46 0 0 0 2-.48v1.76a5.32 5.32 0 0 1-2.19.43 3.45 3.45 0 0 1-2.68-1 4.19 4.19 0 0 1-.93-2.92 4.55 4.55 0 0 1 .44-2.1A3.27 3.27 0 0 1 19.14.76a3.81 3.81 0 0 1 2-.48 5.43 5.43 0 0 1 2.38.54zM27.91.25a3.66 3.66 0 0 1 2.79 1 5.08 5.08 0 0 1 0 5.92 4.34 4.34 0 0 1-5.58 0 5 5 0 0 1 0-5.9A3.67 3.67 0 0 1 27.91.25zm0 1.71q-1.56 0-1.56 2.26t1.55 2.24a1.34 1.34 0 0 0 1.18-.54 4 4 0 0 0 0-3.4 1.32 1.32 0 0 0-1.17-.57zm9.79 2.48a2 2 0 0 1 .39 1.29 2.16 2.16 0 0 1-.82 1.78 3.31 3.31 0 0 1-2.2.67 6.62 6.62 0 0 1-1.29-.11 5.13 5.13 0 0 1-1.08-.38V5.83a5.85 5.85 0 0 0 1.24.48 4.72 4.72 0 0 0 1.18.17 1.19 1.19 0 0 0 .67-.16.48.48 0 0 0 .23-.42.45.45 0 0 0-.09-.28 1.21 1.21 0 0 0-.28-.24 11.21 11.21 0 0 0-1-.5 5.12 5.12 0 0 1-1.13-.66 2.15 2.15 0 0 1-.74-1.72 2 2 0 0 1 .77-1.66 3.42 3.42 0 0 1 2.13-.6 6 6 0 0 1 2.44.56l-.64 1.61a4.64 4.64 0 0 0-1.87-.49 1 1 0 0 0-.58.13.42.42 0 0 0-.19.36.52.52 0 0 0 .23.41 8.93 8.93 0 0 0 1.27.65 3.53 3.53 0 0 1 1.36.97zM42.76.25a3.66 3.66 0 0 1 2.79 1 5.08 5.08 0 0 1 0 5.92 4.34 4.34 0 0 1-5.58 0 5 5 0 0 1 0-5.9A3.67 3.67 0 0 1 42.76.25zm0 1.71q-1.56 0-1.56 2.26t1.55 2.24a1.34 1.34 0 0 0 1.18-.54 4 4 0 0 0 0-3.4 1.32 1.32 0 0 0-1.17-.57zm5.44 6.25a1.2 1.2 0 0 1-.83-.27.94.94 0 0 1-.3-.74 1 1 0 0 1 .29-.75 1.21 1.21 0 0 1 .83-.26 1.13 1.13 0 0 1 .8.26 1 1 0 0 1 .28.75 1 1 0 0 1-.29.74 1.13 1.13 0 0 1-.78.27z" stroke="#000" stroke-width=".5" fill="none" fill-rule="evenodd"/></svg>